Patient4_TMGait_0pt2_02_right_14_EMG.mot
version=1
nRows=33
nColumns=33
inDegrees=no
endheader
time	1LAddLong	2LGlutMax	3LGlutMed	4LIliopsoas	5LSemiMemb	6LBicFemLong	7LRecFem	8LVastMed	9LVastLat	10LGasMed	11LTibAnt	12lTibPost	13LPeroneusLong	14LSol	15LExtDigLong	16LFlexDigLong	17RAddLong	18RGlutMax	19RGlutMed	20RIliopsoas	21RSemiMemb	22RBicFemLong	23RRecFem	24RVastMed	25RVastLat	26RGasMed	27RTibAnt	28RTibPost	29RPeroneusLong	30RSol	31RExtDigLong	32RFlexDigLong
31.71	0.001221	-0.009308	0.080566	-0.006561	-0.019531	0.041351	-0.016022	0.007935	0.007477	-0.014343	-0.003815	-0.00061	0.27252	0.42679	-0.030975	0.00885	-0.030975	-0.59113	-0.15808	-0.041351	0.14084	-0.33356	0.013428	0.073395	-0.037842	-0.020447	0.073242	-0.010223	0.65124	0.24323	-0.00473	-0.000153
31.711	-0.007019	-0.001984	0.074158	0.004883	-0.053711	0.011597	-0.015717	0.008698	0.016785	0.041809	-0.011139	-0.004578	0.37979	0.34271	-0.018768	-0.16495	0.00473	-0.62958	-0.033569	-0.20615	0.057983	-0.44083	0.11215	0.028076	-0.057526	-0.015869	-0.027771	-0.014496	0.81802	0.099182	-0.004425	-0.001221
31.712	0.001678	-0.019684	0.078583	0.003967	-0.03479	0.012207	-0.025024	0.007477	0.011292	0.12726	-0.003815	-0.001068	0.24399	0.13412	-0.014038	-0.001221	0.029907	-0.62347	0.029449	-0.14313	-0.092316	-0.43304	0.18143	0.004272	-0.029907	-0.006409	-0.17761	0.011749	0.89279	-0.067291	-0.004272	0.003204
31.713	0.003967	-0.039215	0.076141	-0.00473	0.0177	0.00885	-0.008698	0.010376	0.010986	0.14801	0.001221	-0.005646	0.10101	-0.072479	-0.038147	0.11108	0.048523	-0.49774	-0.10712	-0.039978	-0.10803	-0.19684	0.1564	0.038147	0	-0.00946	-0.068665	0.001984	-0.93353	-0.073395	-0.004272	-0.003052
31.714	0.004272	-0.015411	0.067749	0.009766	0.077667	0.038757	-0.026398	0.00946	0.010986	0.094604	0.006409	-0.00412	0.026398	-0.080261	-0.000305	-0.018768	0.042725	-0.38834	0.086517	0.040741	0.019531	-0.10422	0.081482	-0.054932	0.001373	-0.018158	0.046997	-0.001373	-0.93063	-0.022278	-0.002747	-0.003357
31.715	-0.000305	-0.011292	0.047913	0.015564	0.041962	0.043793	-0.033569	0.006256	0.02121	0.06424	0.009155	0.000305	-0.009613	-0.12268	0.009155	0.017395	0.089264	-0.25848	0.14908	0.2002	0.022888	0.13565	0.082245	-0.21942	-0.017548	-0.013885	0.066223	-0.004425	-1.0774	-0.15106	-0.009613	-0.00885
31.716	0.005188	-0.014191	0.048523	0.003815	-0.012665	-0.026855	-0.041351	0.008545	0.020752	0.027008	0.005951	-0.001984	-0.036621	-0.042877	0.036316	0.012054	0.15213	-0.24841	0.15411	0.21484	0.013275	0.17227	0.077667	-0.33218	-0.028687	-0.001678	0.001068	-0.002441	0.46509	-0.16113	-0.003662	0.000153
31.717	0.001373	-0.024872	0.05722	0.001831	-0.058746	-0.048523	-0.041809	0.00061	0.023346	0.036163	-0.001831	-0.001526	-0.034943	-0.004272	0.030365	-0.016937	0.18158	-0.31174	0.085449	0.10895	-0.059967	0.034485	-0.030212	-0.40192	0.025635	0.034943	-0.091553	0.000763	1.0225	-0.15472	-0.002441	-0.003052
31.718	0.014496	0.004425	0.018921	0.010376	-0.044861	-0.007782	-0.059662	0.003662	0.013123	0.032043	0.005798	-0.006561	-0.008698	-0.034943	0.030365	0.000153	0.10025	-0.17487	0.023193	0.065308	-0.38757	-0.013275	-0.024719	-0.35568	0.022125	0.035553	-0.044861	-0.004578	-0.053253	-0.061951	-0.001526	0.001984
31.719	0.002441	0.005646	0.030518	0.009308	0.036774	0.019684	-0.038757	0.012817	0.020447	0.000763	-0.002594	-0.007324	-0.027161	0.004578	0.031586	-0.44006	-0.004425	-0.1358	-0.056763	0.071869	-0.52216	-0.17151	-0.032654	-0.11917	0.004578	-0.054169	0.041504	-0.009003	-1.2215	0.021667	-0.003662	0.000305
31.72	0.006866	-0.005798	0.018158	0.011597	0.061951	0.02533	-0.023956	0.002747	0.006866	-0.040588	-0.003052	-0.002136	-0.006104	-0.028992	0.043488	-1.0326	-0.028229	-0.12253	-0.009613	0.037537	-0.25818	-0.31509	-0.012512	0.048218	0.018768	-0.022583	0.070343	-0.00412	-0.46936	-0.057526	-0.000153	-0.003967
31.721	0.012817	-0.001068	-0.010834	0.008392	0.0383	0.036011	-0.032196	0.004883	0.025635	-0.090027	0.006866	-0.006561	-0.062408	0.11368	0.049286	0.45151	-0.042725	0.003967	0.027466	0.025177	-0.046082	-0.37735	0.009918	0.046082	0.004425	0.000153	0.03006	-0.002441	0.56152	-0.012817	-0.000305	-0.013733
31.722	0.010071	0.009766	-0.040283	0.001373	0.020142	0.009766	-0.02243	0.006714	0.015259	-0.089417	0.004578	-0.003357	-0.14496	0.215	0.038147	0.66467	-0.053864	0.1178	0.033417	0.068207	0.15091	-0.31296	-0.025482	0.10681	0.018005	0.021362	-0.046082	-0.002594	0.31326	0.025024	0	-0.009766
31.723	0.00946	-0.006561	-0.028839	0.002289	0.019379	0.027771	-0.013733	0.005798	0.02533	-0.092926	0.00351	0.005035	0.12161	0.38605	0.031738	-0.43396	-0.033112	0.20172	0.0737	0.003967	0.23697	-0.1181	-0.058441	0.092468	0.027924	-0.003967	-0.023346	-0.004883	-0.43869	-0.010071	-0.00412	-0.005798
31.724	0.005035	-0.000458	0.032501	-0.006409	0.013275	0.033569	-0.014954	0.007782	0.009003	-0.025635	0.000305	-0.010071	-0.067596	0.45502	0.026703	0.24216	-0.014648	0.15442	0.097046	-0.032501	0.15228	0.28168	-0.004425	0.041351	0.020599	0.001526	0.004883	-0.011902	-0.14725	0.011597	-0.004425	-0.006561
31.725	0.007324	0.004425	0.026398	0.010986	0.014648	-0.016479	-0.004578	0.006714	0.014038	0.075073	0.000916	-0.036316	-0.18646	0.30075	0.04364	-0.040588	0.000916	0.19623	0.044098	-0.035553	0.13123	0.80414	-0.02243	0.024567	0.041046	0.017242	-0.066376	-0.011597	0.54932	-0.00824	-0.00412	0.001678
31.726	-0.005188	-0.004425	0.032501	0.007019	0.010986	-0.050507	0.014343	0.002441	0.02243	0.11948	-0.014954	-0.1001	0.024872	-0.25971	0.04425	0.14191	-0.038757	0.22888	-0.026703	0.020142	-0.11475	0.73181	-0.025482	0.028229	0.04303	0.031433	-0.2092	-0.006561	1.1606	-0.083466	-0.000305	0.004578
31.727	0.003967	0.002747	0.023499	0.002441	0.010071	-0.010834	0.00473	-0.002136	0.010071	0.17487	-0.008392	-0.29907	0.007477	-0.63599	0.010071	-0.16632	-0.039215	0.17014	-0.040588	0.014648	-0.2446	0.29816	-0.001526	0.028076	0.024109	-0.034943	-0.036469	-0.00473	0.12283	-0.10056	-0.006104	0.001221
31.728	0.002594	0.026093	0.00885	0.004883	0.002594	0.011139	0.005035	0.002136	0.026703	0.11276	0.004425	0.093384	-0.088501	-0.96298	-0.070343	0.4126	-0.014954	0.076447	0.020142	0.035095	-0.15228	0.05722	0.066681	-0.015411	0.008392	-0.050354	0.07431	-0.024872	0.61676	-0.089874	-0.00885	0.005951
31.729	0.000763	-0.007477	-0.024719	0.017853	-0.005188	0.011749	0.012207	0.002594	0.01236	0.10422	0.007782	0.33188	0.019684	-0.24902	-0.049591	0.5545	0.007935	0.071564	0.073853	0.035706	0.018005	-0.1181	0.034943	-0.040283	0.019073	-0.065613	0.040588	-0.03418	1.2996	-0.011902	-0.001831	0.003662
31.73	0.001678	-0.004425	0.027008	0.01358	-0.009155	-0.015869	0.01709	0.005341	0.013733	0.026703	-0.005188	0.08255	0.047607	0.23056	-0.036163	0.13092	0.005646	0.12116	0.068054	-0.012665	0.15823	-0.24048	-0.012512	-0.029602	0.026245	-0.060272	-0.000916	0.02594	1.3318	-0.18021	-0.003815	0.003815
31.731	-0.003967	0.00473	-0.001678	0.008087	-0.019836	-0.014954	0.010834	0.006256	0.024872	0.048218	-0.00885	0.06546	0.10605	0.83344	-0.041199	-0.016327	0.015411	0.059967	-0.045929	-0.002441	0.2269	-0.17456	-0.070038	0.078278	0.046539	-0.043335	-0.067596	-0.009613	-0.15366	-0.23758	-0.001068	0.001831
31.732	0.001831	0.010834	-0.006866	-0.011292	-0.013885	-0.021515	-0.008087	0.005035	0.022888	-0.030518	0.001068	-0.023041	0.25757	0.20294	-0.030823	-0.096741	0.052338	0.050049	-0.17075	-0.038147	0.22049	-0.16098	-0.036163	-0.016632	0.051422	-0.02533	-0.11673	-0.02655	-1.409	-0.089417	-0.001831	0.008087
31.733	-0.000153	-0.015411	-0.024719	0.001984	-0.016479	-0.028229	-0.002594	0.008087	0.021057	-0.092468	0.001373	-0.019684	0.068512	-0.63889	-0.002136	-0.071106	0.099182	0.058441	-0.20569	-0.077362	0.16571	-0.17181	0.011902	-0.086517	0.017853	-0.092773	-0.10422	0.07019	-0.89218	0.18204	-0.002747	-0.003662
31.734	0.002289	-0.003662	-0.014801	0.016937	-0.01236	0.003815	0.001678	0.008698	0.018005	-0.10223	0.001068	-0.008698	-0.012665	-0.69748	0.049133	-0.082245	0.045471	0.059509	0.084534	-0.097504	0.067444	0.18921	0.009766	-0.062256	0.013885	-0.10819	-0.049133	0.001984	-0.73654	0.14481	-0.000153	-0.004425
31.735	-0.002136	-0.00946	0.007782	0.00946	-0.001984	-0.029602	-0.022583	0.007935	0.029602	-0.12329	-0.002136	-0.005493	-0.006561	-0.75546	0.066528	-0.091248	-0.12299	0.021057	0.11917	-0.084229	-0.37308	0.56747	-0.054779	0.0354	0.020447	-0.052948	-0.060272	-0.011749	-0.016022	-0.093079	-0.001831	-0.006714
31.736	0.007172	0.028076	0.040436	-0.002441	0.018311	-0.077209	-0.046387	-0.001984	0.038605	-0.16159	0.009918	0.001373	-0.005798	-0.42465	0.066833	-0.091705	-0.18097	0.069122	0.13977	-0.16159	-0.39108	0.42206	-0.029907	0.029449	-0.024414	0.090027	-0.091248	-0.010834	0.66742	0.013275	-0.002136	-0.004425
31.737	-0.000458	0.014496	0.027313	-0.000763	0.037079	-0.006409	-0.041504	0.004578	0.033569	-0.16388	-0.046387	-0.010376	-0.001373	-0.10346	0.045929	-0.080719	-0.072479	0.14816	0.13458	-0.22751	-0.019684	0.20599	0.040588	-0.096893	0.026245	0.082397	0.009003	-0.022736	0.21835	0.27161	-0.006561	-0.010529
31.738	0.007629	0.029449	0.033112	-0.012512	0.016479	0.073853	-0.043182	-0.002136	0.023499	-0.10849	0.030365	-0.020142	-0.022736	0.14328	0.038147	-0.068207	0.007477	0.20279	0.066376	-0.11475	0.13947	-0.103	-0.004425	-0.10849	0.42145	0.050201	0.063782	-0.031738	-1.9287	0.25543	-0.00412	-0.00946
31.739	0.013123	0.018921	0.039825	-0.006104	0.006256	0.034485	-0.035706	0.005798	0.028839	-0.10025	-0.000916	-0.024261	0.019531	0.29159	0.018616	-0.04425	0.034332	0.27023	0.13031	0.000763	0.008698	-0.25848	0.02533	0.090027	0.5072	0.040894	0.056763	-0.054779	-1.3419	0.47485	-0.002899	-0.002441
31.74	0.006714	0.015106	0.012665	0.015411	0.015564	-0.016479	-0.016632	0.003357	0.021362	-0.1207	-0.008087	-0.035553	-0.003815	0.15503	0.017548	0.006866	0.033569	0.38513	0.11536	0.12558	-0.041656	-0.22827	-0.018005	0.10513	0.39597	0.00473	0.083466	0.021515	0.49942	0.63614	-0.003052	-0.006866
31.741	0.002289	0.017853	0.015869	0.012665	0.021515	-0.023956	-0.013123	-0.001221	0.015259	-0.16556	0.031891	-0.69458	-0.041809	0.4306	0.039825	-0.036774	0.044861	0.49835	0.074615	0.23636	-0.045776	-0.25986	0.008392	0.024261	0.23224	-0.045319	0.07431	0.046234	0.48706	0.23086	-0.001526	0.003204
31.742	0	0.005646	0.002594	0.00351	0.020752	0.010223	-0.010834	0.002899	0.017242	-0.19318	0.001984	0.47897	-0.056305	0.75333	0.049133	0.030518	0.045319	0.48019	0.03952	0.28641	-0.063171	-0.23605	0.067444	-0.021667	0.027161	-0.04715	-0.024261	0.011902	0.97305	-0.068359	-0.003662	0.008392
